<?xml version="1.0" encoding="UTF-8"?>
<svg xmlns="http://www.w3.org/2000/svg" version="1.1" viewBox="0 0 480 480">
  <defs>
    <style>
      .cls-1 {
        stroke-miterlimit: 10;
        stroke-width: 18px;
      }

      .cls-1, .cls-2, .cls-3, .cls-4, .cls-5, .cls-6, .cls-7, .cls-8, .cls-9 {
        stroke: #231f20;
      }

      .cls-1, .cls-4, .cls-7, .cls-8, .cls-9 {
        fill: #231f20;
      }

      .cls-2, .cls-3, .cls-5, .cls-6 {
        fill: none;
      }

      .cls-2, .cls-3, .cls-5, .cls-6, .cls-7 {
        stroke-miterlimit: 10;
      }

      .cls-2, .cls-7 {
        stroke-width: 18px;
      }

      .cls-3 {
        stroke-width: 35px;
      }

      .cls-4 {
        stroke-miterlimit: 10;
        stroke-width: 18px;
      }

      .cls-5 {
        stroke-width: 55px;
      }

      .cls-6 {
        stroke-width: 15px;
      }

      .cls-10 {
        display: none;
      }

      .cls-8 {
        stroke-miterlimit: 10;
        stroke-width: 18px;
      }

      .cls-9 {
        stroke-miterlimit: 10;
        stroke-width: 18px;
      }
    </style>
  </defs>
  <!-- Generator: Adobe Illustrator 28.7.5, SVG Export Plug-In . SVG Version: 1.2.0 Build 176)  -->
  <g>
    <g id="Layer_1">
      <path class="cls-5" d="M98,383c91.3-102,182.7-204,274-306"/>
      <path class="cls-3" d="M241.4,130.8c-84.3,0-160.6,35.5-216.4,93.1,55.5,55.9,130.7,90.3,213.6,90.3s160.6-35.5,216.4-93.1c-55.5-55.9-130.7-90.3-213.6-90.3h0Z"/>
      <g id="Layer_2" class="cls-10">
        <path class="cls-6" d="M241.8,130.5c-89.7,0-171,35.5-230.3,93.1,59.1,55.9,139.2,90.3,227.4,90.3s171-35.5,230.3-93.1c-59-55.9-139.2-90.3-227.4-90.3h0Z"/>
        <path class="cls-2" d="M434.3,217.1c-23.2,16.7-59.6,38.9-108.2,53.5-17.3,5.2-47.2,14-87.4,14.6-73.1,1.2-125.4-28-137.4-34.3-23.9-12.6-39.1-26.9-51-37.4"/>
        <g>
          <g>
            <g>
              <circle class="cls-7" cx="349.5" cy="341.8" r="14.8"/>
              <rect class="cls-9" x="327.7" y="307.3" width="29.6" height="27.9" transform="translate(-83.9 124.5) rotate(-18.4)"/>
            </g>
            <g>
              <g>
                <circle class="cls-7" cx="237.2" cy="359.6" r="14.8"/>
                <rect class="cls-7" x="222.4" y="323.8" width="29.6" height="27.9"/>
              </g>
              <g>
                <g>
                  <circle class="cls-7" cx="26.2" cy="293.2" r="14.8" transform="translate(-3 .3) rotate(-.6)"/>
                  <rect class="cls-4" x="26.7" y="261.8" width="27.9" height="29.6" transform="translate(-195.3 126.6) rotate(-49.2)"/>
                </g>
                <g>
                  <circle class="cls-7" cx="117.1" cy="339" r="14.8" transform="translate(-32.8 13.2) rotate(-5.7)"/>
                  <rect class="cls-8" x="113.6" y="304.8" width="27.9" height="29.6" transform="translate(-214.2 279.8) rotate(-61.6)"/>
                </g>
              </g>
            </g>
          </g>
          <g>
            <circle class="cls-7" cx="443.6" cy="297" r="14.8"/>
            <rect class="cls-1" x="417.2" y="264.1" width="29.6" height="27.9" transform="translate(-81.7 272.9) rotate(-32.2)"/>
          </g>
        </g>
      </g>
      <g id="Layer_2-2" class="cls-10">
        <line class="cls-3" x1="358" y1="54.5" x2="122" y2="390.5"/>
      </g>
    </g>
  </g>
</svg>